<?xml version="1.0" encoding="iso-8859-1"?><!DOCTYPE svg PUBLIC "-//W3C//DTD SVG 1.1//EN" "http://www.w3.org/Graphics/SVG/1.1/DTD/svg11.dtd"><svg viewBox="0 0 306 306" xmlns="http://www.w3.org/2000/svg" xmlns:xlink="http://www.w3.org/1999/xlink"><style>:root>svg{display:none}:root>svg:target{display:block}</style><svg viewBox="0 0 306 306" id="arrow" xmlns="http://www.w3.org/2000/svg"><path d="M247.35 35.7L211.65 0l-153 153 153 153 35.7-35.7L130.05 153z"/></svg><svg viewBox="0 0 40 40" id="bell" xmlns="http://www.w3.org/2000/svg"><path d="M15 28.334v-1a1 1 0 00-1 1h1zm10 0h1a1 1 0 00-1-1v1zm-10 1h10v-2H15v2zm9-1V30h2v-1.666h-2zM16 30v-1.666h-2V30h2zm4 4a4 4 0 01-4-4h-2a6 6 0 006 6v-2zm4-4a4 4 0 01-4 4v2a6 6 0 006-6h-2z" fill="#14181F"/><path d="M7.155 24.512l-.707-.707.707.707zm.851-.852l.707.708-.707-.707zm23.988 0l.707-.707-.707.707zm.851.852l.707-.707-.707.707zM20 5v1-1zm11.667 22.333H8.333v2h23.334v-2zm-24-.666v-.977h-2v.977h2zm.195-1.448l.851-.851L7.3 22.953l-.851.852 1.414 1.414zm1.471-2.348v-6.204h-2v6.204h2zm21.334-6.204v6.204h2v-6.204h-2zm.62 7.7l.851.852 1.414-1.414-.851-.852-1.414 1.415zm1.046 1.323v.977h2v-.977h-2zm-.195-.471a.666.666 0 01.195.471h2c0-.707-.28-1.385-.78-1.885l-1.415 1.414zm-1.471-2.348c0 .561.223 1.1.62 1.497l1.414-1.415a.116.116 0 01-.034-.082h-2zm2-6.204C32.667 9.67 26.995 4 20 4v2c5.891 0 10.667 4.776 10.667 10.667h2zm-23.334 0C9.333 10.776 14.11 6 20 6V4C13.004 4 7.333 9.671 7.333 16.667h2zm-.62 7.7c.397-.396.62-.935.62-1.496h-2c0 .03-.012.06-.034.082l1.414 1.415zM7.667 25.69c0-.176.07-.346.195-.471l-1.414-1.414c-.5.5-.781 1.178-.781 1.885h2zm.666 1.643a.667.667 0 01-.666-.666h-2a2.667 2.667 0 002.666 2.666v-2zm23.334 2a2.667 2.667 0 002.666-2.666h-2a.667.667 0 01-.666.666v2z" fill="#14181F"/></svg><svg viewBox="0 0 40 40" id="calendar" xmlns="http://www.w3.org/2000/svg"><path d="M31.325 6.338H29.87v-2.91h-2.909v2.91H12.416v-2.91h-2.91v2.91H8.052c-1.6 0-2.91 1.309-2.91 2.909V32.52c0 1.6 1.31 2.909 2.91 2.909h23.273c1.6 0 2.909-1.31 2.909-2.91V9.248c0-1.6-1.31-2.91-2.91-2.91zM32 33.143H7.553V11.429H32v21.714z"/></svg><svg viewBox="0 0 35 35" id="figure" xmlns="http://www.w3.org/2000/svg"><mask id="da" fill="#fff"><path d="M17.27 0C9.7 0 5.915 0 3.367 2.09a9.21 9.21 0 00-1.276 1.277C0 5.915 0 9.7 0 17.27c7.668-.378 11.501-.567 13.984-2.943.082-.08.164-.16.243-.242C16.62 11.618 16.837 7.745 17.27 0zM0 17.73c0 7.57 0 11.355 2.09 13.903.383.466.811.894 1.277 1.276C5.915 35 9.7 35 17.27 35c-.436-7.737-.654-11.605-3.095-14.081a10.436 10.436 0 00-.094-.094C11.605 18.385 7.737 18.166 0 17.73zM17.73 35c7.57 0 11.355 0 13.903-2.09.466-.383.894-.811 1.276-1.277C35 29.085 35 25.3 35 17.73c-7.737.436-11.605.654-14.081 3.095-.032.03-.063.062-.094.094-2.44 2.476-2.659 6.344-3.095 14.081zM35 17.155c0-7.46 0-11.19-2.034-13.717a9.21 9.21 0 00-1.404-1.404C29.034 0 25.266 0 17.73 0c.43 7.68.645 11.521 2.993 13.978.125.13.253.258.386.38 2.488 2.315 6.29 2.475 13.891 2.797z"/></mask><path d="M17.27 0C9.7 0 5.915 0 3.367 2.09a9.21 9.21 0 00-1.276 1.277C0 5.915 0 9.7 0 17.27c7.668-.378 11.501-.567 13.984-2.943.082-.08.164-.16.243-.242C16.62 11.618 16.837 7.745 17.27 0zM0 17.73c0 7.57 0 11.355 2.09 13.903.383.466.811.894 1.277 1.276C5.915 35 9.7 35 17.27 35c-.436-7.737-.654-11.605-3.095-14.081a10.436 10.436 0 00-.094-.094C11.605 18.385 7.737 18.166 0 17.73zM17.73 35c7.57 0 11.355 0 13.903-2.09.466-.383.894-.811 1.276-1.277C35 29.085 35 25.3 35 17.73c-7.737.436-11.605.654-14.081 3.095-.032.03-.063.062-.094.094-2.44 2.476-2.659 6.344-3.095 14.081zM35 17.155c0-7.46 0-11.19-2.034-13.717a9.21 9.21 0 00-1.404-1.404C29.034 0 25.266 0 17.73 0c.43 7.68.645 11.521 2.993 13.978.125.13.253.258.386.38 2.488 2.315 6.29 2.475 13.891 2.797z"/><path d="M.115 17.73v-.46h-.23v.46h.23zM17.73 34.885h-.46v.23h.46v-.23zm17.155-17.73v.575h.23v-.575h-.23zM17.27.115h.46v-.23h-.46v.23zm-3.189 20.71l-.162.164.162-.164zm.094.094l.164-.162-.164.162zm6.934-6.56l-.157.168.157-.168zm-.386-.381l.166-.16-.166.16zM2.09 31.633l-.178.146.178-.146zm1.276 1.276l-.146.178.146-.178zm28.266 0l.146.178-.146-.178zm1.276-1.276l.178.146-.178-.146zm.057-28.195l.18-.145-.18.145zm-1.404-1.404l-.144.18.144-.18zm-17.335 12.05l-.165-.16.165.16zm-.243.243l.16.166-.16-.166zm6.84 6.592l-.163-.162.164.162zm.095-.094l-.162-.164.162.164zM-.013 17.96c3.874.218 6.758.381 8.984.792 2.22.41 3.756 1.061 4.948 2.237l.324-.328c-1.284-1.265-2.92-1.943-5.188-2.362-2.261-.417-5.18-.581-9.042-.799l-.026.46zM17.5 34.987c-.218-3.862-.382-6.78-.8-9.042-.418-2.268-1.096-3.904-2.36-5.188l-.329.323c1.176 1.193 1.827 2.729 2.237 4.949.41 2.226.574 5.11.792 8.984l.46-.026zm-3.58-13.998l.091.091.328-.323a10.975 10.975 0 00-.096-.096l-.324.328zm21.09-4.065c-3.807-.16-6.641-.28-8.835-.647-2.189-.366-3.711-.973-4.91-2.087l-.313.337c1.29 1.2 2.912 1.83 5.147 2.204 2.229.373 5.096.493 8.891.654l.02-.46zM17.5.013c.215 3.834.377 6.731.78 8.976.406 2.25 1.059 3.874 2.276 5.148l.333-.318c-1.13-1.183-1.758-2.707-2.155-4.912-.398-2.21-.559-5.074-.774-8.92l-.46.026zm3.765 14.177a8.954 8.954 0 01-.376-.371l-.333.318c.128.134.26.264.396.39l.313-.337zM-.23 17.73c0 3.78 0 6.634.263 8.862.264 2.233.795 3.865 1.88 5.187l.356-.293C1.263 30.261.749 28.727.49 26.538.23 24.343.23 21.52.23 17.73h-.46zm17.5 17.04c-3.79 0-6.614 0-8.808-.26-2.189-.259-3.723-.773-4.948-1.779l-.293.356c1.322 1.085 2.955 1.616 5.187 1.88 2.228.264 5.082.263 8.862.263v-.46zM1.913 31.779c.392.478.83.916 1.308 1.308l.292-.356a8.983 8.983 0 01-1.244-1.245l-.356.293zM17.73 35.23c3.78 0 6.634 0 8.862-.263 2.233-.264 3.865-.795 5.187-1.88l-.293-.356c-1.225 1.006-2.76 1.52-4.948 1.779-2.195.26-5.017.26-8.808.26v.46zm17.04-17.5c0 3.79 0 6.613-.26 8.808-.259 2.189-.773 3.723-1.779 4.948l.356.293c1.085-1.322 1.616-2.954 1.88-5.187.264-2.228.263-5.082.263-8.862h-.46zm-2.991 15.357c.478-.392.916-.83 1.308-1.308l-.356-.293c-.373.455-.79.872-1.245 1.245l.293.356zm3.451-15.932c0-3.724 0-6.537-.255-8.735-.257-2.202-.774-3.815-1.83-5.127l-.358.289c.979 1.217 1.478 2.732 1.73 4.892.252 2.164.253 4.945.253 8.68h.46zM17.73.23c3.774 0 6.584 0 8.768.253 2.179.252 3.704.752 4.92 1.73l.289-.359C30.395.8 28.772.282 26.55.025 24.334-.23 21.493-.23 17.73-.23v.46zm15.416 3.063a9.441 9.441 0 00-1.44-1.439l-.288.36c.504.405.963.864 1.369 1.368l.359-.289zM17.04-.013c-.217 3.879-.38 6.766-.783 8.994-.404 2.221-1.043 3.756-2.195 4.944l.33.32c1.241-1.279 1.906-2.914 2.318-5.182.41-2.262.573-5.183.79-9.05l-.46-.026zM.01 17.5c3.828-.189 6.72-.331 8.965-.726 2.251-.395 3.88-1.05 5.167-2.28l-.318-.333c-1.196 1.144-2.725 1.772-4.929 2.16-2.21.388-5.068.53-8.907.719l.022.46zm14.051-3.575c-.078.08-.157.158-.237.236l.318.332c.085-.08.168-.164.25-.248l-.33-.32zm3.898 21.088c.218-3.874.381-6.758.792-8.984.41-2.22 1.061-3.756 2.237-4.948l-.328-.324c-1.265 1.284-1.943 2.92-2.362 5.188-.417 2.261-.581 5.18-.799 9.042l.46.026zM34.987 17.5c-3.862.218-6.78.382-9.042.8-2.268.418-3.904 1.096-5.188 2.36l.323.329c1.193-1.176 2.729-1.827 4.949-2.237 2.226-.41 5.11-.574 8.984-.792l-.026-.46zm-13.998 3.58l.091-.091-.323-.328-.096.096.328.323zM17.269-.23c-3.779 0-6.633 0-8.86.263-2.233.264-3.866.795-5.188 1.88l.292.356C4.74 1.263 6.274.749 8.463.49 10.656.23 13.478.23 17.27.23v-.46zM.23 17.27c0-3.79 0-6.614.26-8.808.259-2.189.773-3.723 1.779-4.948l-.356-.293C.828 4.543.297 6.176.033 8.408-.231 10.636-.23 13.49-.23 17.27h.46zM3.221 1.913A9.44 9.44 0 001.913 3.22l.356.292c.373-.454.79-.871 1.244-1.244l-.292-.356z" mask="url(#da)"/></svg><svg viewBox="0 0 37 37" id="instagram" xmlns="http://www.w3.org/2000/svg"><path d="M18.5.682c-4.838 0-5.445.02-7.346.107-1.897.087-3.192.387-4.325.828a8.725 8.725 0 00-3.156 2.055 8.747 8.747 0 00-2.056 3.156C1.175 7.96.874 9.256.789 11.152.704 13.053.682 13.661.682 18.5s.021 5.444.107 7.345c.088 1.897.388 3.192.828 4.325a8.731 8.731 0 002.055 3.156 8.724 8.724 0 003.155 2.056c1.134.441 2.429.742 4.325.828 1.901.087 2.508.108 7.347.108s5.444-.021 7.345-.108c1.897-.087 3.193-.387 4.327-.828a8.717 8.717 0 003.154-2.056 8.747 8.747 0 002.056-3.156c.438-1.133.739-2.429.828-4.325.085-1.9.108-2.506.108-7.345 0-4.84-.023-5.447-.108-7.347-.09-1.897-.39-3.192-.828-4.325a8.745 8.745 0 00-2.056-3.156 8.708 8.708 0 00-3.156-2.055c-1.135-.44-2.43-.74-4.328-.828-1.9-.086-2.505-.107-7.346-.107h.006zm-1.598 3.21h1.599c4.757 0 5.32.018 7.2.103 1.737.08 2.68.37 3.308.614a5.51 5.51 0 012.047 1.332 5.53 5.53 0 011.334 2.05c.243.627.534 1.57.613 3.307.086 1.878.104 2.443.104 7.198 0 4.755-.018 5.32-.104 7.198-.08 1.737-.37 2.68-.613 3.307a5.509 5.509 0 01-1.334 2.047 5.512 5.512 0 01-2.047 1.333c-.628.245-1.571.534-3.308.614-1.879.085-2.443.104-7.2.104-4.758 0-5.322-.02-7.2-.104-1.737-.08-2.68-.37-3.309-.615a5.519 5.519 0 01-2.049-1.333A5.523 5.523 0 014.61 29c-.244-.628-.534-1.57-.614-3.308-.085-1.878-.102-2.442-.102-7.2 0-4.759.017-5.32.102-7.199.08-1.737.37-2.68.614-3.308a5.52 5.52 0 011.333-2.049 5.53 5.53 0 012.05-1.333c.628-.245 1.57-.535 3.308-.615 1.644-.074 2.28-.096 5.601-.1v.005zm11.11 2.96a2.138 2.138 0 100 4.276 2.138 2.138 0 000-4.278v.001zM18.5 9.348a9.15 9.15 0 000 18.3 9.148 9.148 0 009.148-9.15A9.15 9.15 0 0018.5 9.35zm0 3.211a5.94 5.94 0 110 11.88 5.94 5.94 0 010-11.88z"/></svg><svg viewBox="0 0 24 24" id="search" xmlns="http://www.w3.org/2000/svg"><path d="M10 17a7 7 0 100-14 7 7 0 000 14zM15 15l6 6"/></svg><svg viewBox="0 0 32 36" id="shop" xmlns="http://www.w3.org/2000/svg"><path d="M10 15.484a1 1 0 002 .032l-2-.032zM12 4l-.936-.351L12 4zm8 0l.936-.351L20 4zm0 11.5a1 1 0 102 0h-2zM1.27 33.783l-.976-.217.976.217zm29.49.02l-.98.197.98-.196zM5.827 13.284l-.976-.217.976.217zm.976.217H25.68v-2H6.802v2zm18.878 0l4.1 20.5 1.961-.392-4.1-20.5-1.96.392zm4.1 20.5H2.247v2H29.78v-2zM2.247 34l4.555-20.5-1.952-.434-4.556 20.5L2.247 34zM11 15.5l1 .016v-.002-.004-.02l.002-.075c0-.067.003-.166.006-.294a137.172 137.172 0 01.17-4.462 69.26 69.26 0 01.299-3.789c.135-1.193.295-2.08.46-2.519l-1.873-.702c-.263.7-.441 1.82-.574 2.997a71.122 71.122 0 00-.309 3.903 138.599 138.599 0 00-.179 4.828l-.001.08V15.483L11 15.5zm1.936-11.149C13.546 2.723 14.811 2 16 2s2.453.723 3.064 2.351l1.872-.702C20.046 1.277 18.061 0 16 0s-4.047 1.277-4.936 3.649l1.872.702zm6.128 0c.45 1.203.698 3.27.821 5.477.12 2.168.115 4.334.115 5.672h2c0-1.329.006-3.55-.118-5.783-.122-2.194-.374-4.545-.946-6.068l-1.872.702zM2.247 34l-1.953-.434A2 2 0 002.247 36v-2zm27.533 0v2a2 2 0 001.961-2.392l-1.96.392zm-4.1-20.5l1.961-.392a2 2 0 00-1.96-1.608v2zm-18.878-2a2 2 0 00-1.952 1.566l1.952.434v-2z"/></svg><svg viewBox="0 0 53 54" id="spotify" xmlns="http://www.w3.org/2000/svg"><g clip-path="url(#hclip0_203_1968)"><path d="M26.499 52.864c14.497 0 26.25-11.752 26.25-26.25 0-14.497-11.753-26.25-26.25-26.25S.249 12.117.249 26.614c0 14.498 11.752 26.25 26.25 26.25z"/><path d="M40.525 23.792c-7.924-4.736-20.995-5.171-28.56-2.86-1.215.37-2.5-.32-2.867-1.542a2.317 2.317 0 011.532-2.887c8.684-2.652 23.12-2.14 32.242 3.31a2.322 2.322 0 01.804 3.17 2.29 2.29 0 01-3.15.809zm-.26 7.013a1.91 1.91 0 01-2.636.636c-6.606-4.087-16.68-5.27-24.496-2.883a1.917 1.917 0 01-2.392-1.285 1.933 1.933 0 011.278-2.405c8.929-2.726 20.028-1.406 27.616 3.286.901.558 1.185 1.746.63 2.651zm-3.007 6.736a1.526 1.526 0 01-2.107.513c-5.773-3.55-13.04-4.352-21.597-2.385a1.531 1.531 0 01-1.834-1.16 1.54 1.54 0 011.152-1.845c9.365-2.154 17.398-1.227 23.877 2.757.723.444.95 1.394.509 2.12z" fill="#fff"/></g><defs><clipPath id="hclip0_203_1968"><rect transform="translate(0 .308)"/></clipPath></defs></svg><svg viewBox="0 0 33 28" id="telegram" xmlns="http://www.w3.org/2000/svg"><path d="M30.65.226L1.753 11.372c-1.972.791-1.96 1.891-.359 2.382l7.207 2.25 2.758 8.454c.335.926.17 1.293 1.142 1.293.75 0 1.082-.342 1.5-.75l3.603-3.505 7.497 5.539c1.38.76 2.376.367 2.72-1.282l4.92-23.19c.505-2.02-.77-2.936-2.09-2.337zM9.732 15.486L25.977 5.238c.81-.491 1.554-.227.944.315l-13.91 12.55-.542 5.777-2.738-8.392z"/></svg></svg>