<svg width="53" height="54" viewBox="0 0 53 54" fill="none" xmlns="http://www.w3.org/2000/svg">
<g clip-path="url(#clip0_203_1968)">
<path d="M26.499 52.8643C40.9965 52.8643 52.749 41.1117 52.749 26.6143C52.749 12.1168 40.9965 0.364258 26.499 0.364258C12.0015 0.364258 0.249023 12.1168 0.249023 26.6143C0.249023 41.1117 12.0015 52.8643 26.499 52.8643Z" fill="black"/>
<path d="M40.5252 23.7916C32.6009 19.0562 19.5297 18.6208 11.965 20.9313C10.7503 21.3021 9.46565 20.612 9.09753 19.3897C8.72941 18.1668 9.41457 16.875 10.6302 16.5034C19.3139 13.8508 33.7496 14.3633 42.8722 19.8124C43.9648 20.4649 44.3233 21.8849 43.6757 22.9825C43.0275 24.082 41.6152 24.4444 40.5252 23.7916ZM40.2657 30.8054C39.7097 31.7132 38.5302 31.9979 37.6293 31.4405C31.0228 27.3544 20.9487 26.1707 13.1328 28.5578C12.1191 28.8662 11.0485 28.291 10.7409 27.2731C10.4353 26.2531 11.0071 25.1779 12.0187 24.8677C20.9476 22.1416 32.0473 23.462 39.6352 28.154C40.5361 28.7123 40.8197 29.9001 40.2657 30.8054ZM37.2576 37.5413C36.8158 38.2703 35.8726 38.4986 35.1508 38.0544C29.3777 34.504 22.1115 33.7023 13.5543 35.6691C12.7297 35.8593 11.9081 35.3394 11.7199 34.5096C11.5311 33.6802 12.0457 32.8531 12.8724 32.6637C22.2366 30.5097 30.2695 31.4367 36.7492 35.4209C37.4716 35.8649 37.6991 36.8146 37.2576 37.5413Z" fill="white"/>
</g>
<defs>
<clipPath id="clip0_203_1968">
<rect width="53" height="53" fill="white" transform="translate(0 0.307617)"/>
</clipPath>
</defs>
</svg>
